<?xml version="1.0" standalone="no"?>
<!DOCTYPE svg PUBLIC "-//W3C//DTD SVG 20010904//EN"
 "http://www.w3.org/TR/2001/REC-SVG-20010904/DTD/svg10.dtd">
<svg version="1.0" xmlns="http://www.w3.org/2000/svg"
 width="1080.000000pt" height="1080.000000pt" viewBox="0 0 1080.000000 1080.000000"
 preserveAspectRatio="xMidYMid meet">
<metadata>
Created by potrace 1.16, written by Peter Selinger 2001-2019
</metadata>
<g transform="translate(0.000000,1080.000000) scale(0.100000,-0.100000)"
fill="#000000" stroke="none">
<path d="M2078 7077 c-19 -8 -54 -54 -110 -144 -46 -73 -128 -186 -183 -250
-135 -160 -473 -497 -620 -619 -149 -124 -309 -242 -353 -261 -35 -15 -72 -65
-72 -99 0 -25 41 -65 140 -135 99 -71 255 -195 360 -288 114 -100 357 -347
438 -444 35 -42 72 -82 82 -87 23 -12 160 -189 224 -287 26 -40 51 -73 56 -73
5 0 17 -14 27 -30 16 -27 22 -31 58 -28 38 3 44 8 123 113 349 463 783 882
1211 1170 24 16 50 43 57 60 22 53 -4 83 -191 225 -394 300 -695 574 -829 755
-44 60 -119 152 -164 205 -46 52 -100 120 -120 151 -34 51 -69 80 -96 79 -6
-1 -23 -6 -38 -13z m151 -373 c29 -15 78 -50 109 -78 32 -29 93 -81 137 -116
117 -95 401 -381 487 -490 164 -210 189 -248 195 -300 7 -60 -6 -84 -155 -283
-161 -215 -384 -432 -653 -637 -117 -90 -170 -120 -208 -120 -30 0 -170 75
-242 129 -95 72 -491 453 -575 552 -39 46 -102 127 -142 181 -39 53 -75 99
-81 103 -6 3 -11 30 -11 58 1 56 10 72 107 183 24 27 74 88 111 137 77 97 200
228 307 327 98 90 138 128 150 140 24 25 273 228 286 233 40 16 127 6 178 -19z"/>
<path d="M2065 6642 c-16 -10 -77 -56 -134 -102 -373 -297 -726 -681 -748
-813 -3 -19 2 -59 11 -90 14 -49 35 -75 189 -243 188 -206 370 -381 542 -524
135 -113 155 -124 214 -118 46 5 141 60 256 148 137 106 404 386 638 669 93
113 94 108 -38 286 -130 176 -229 290 -389 450 -195 194 -293 277 -379 320
-78 39 -118 43 -162 17z m94 -269 c17 -49 53 -152 80 -230 l50 -143 -50 0 -49
0 0 -215 0 -215 -68 0 -67 0 12 168 c6 92 14 188 17 215 l5 47 -49 0 c-28 0
-50 3 -50 6 0 6 86 321 113 417 6 20 14 37 18 37 4 0 21 -39 38 -87z m-269
-485 c33 -24 60 -46 60 -49 0 -4 -28 -14 -62 -24 -90 -25 -135 -51 -154 -86
-22 -43 -9 -67 60 -118 49 -36 66 -43 138 -52 120 -17 384 -6 476 19 79 22
169 81 178 118 14 55 -51 104 -137 104 l-57 0 -16 40 c-24 60 -22 63 32 56 78
-11 199 -51 178 -59 -16 -6 -9 -14 38 -48 31 -22 58 -50 62 -63 11 -44 -47
-118 -137 -173 -50 -31 -188 -54 -370 -60 -230 -8 -417 20 -539 82 -51 26
-107 85 -116 123 -9 33 14 79 53 109 37 29 221 122 240 123 7 0 40 -19 73 -42z
m313 -615 c10 -109 17 -208 17 -220 0 -22 -3 -23 -101 -23 -91 0 -100 2 -95
18 13 46 26 185 26 291 0 65 3 121 7 124 3 4 34 7 68 7 l61 0 17 -197z"/>
<path d="M3898 6703 c-2 -5 -2 -473 0 -1040 l2 -1033 280 0 280 0 0 1040 0
1040 -279 0 c-154 0 -281 -3 -283 -7z"/>
<path d="M4765 6698 c-3 -7 -4 -474 -3 -1038 l3 -1025 803 -3 802 -2 0 200 0
200 -505 0 -505 0 0 220 0 220 455 0 455 0 0 200 0 200 -455 0 -455 0 0 215 0
215 503 2 502 3 0 200 0 200 -798 3 c-633 2 -799 0 -802 -10z"/>
<path d="M6670 5670 l0 -1040 800 0 800 0 0 200 0 200 -500 0 -500 0 0 220 0
220 468 2 467 3 0 195 0 195 -467 3 -468 2 0 215 0 215 500 0 500 0 0 205 0
205 -800 0 -800 0 0 -1040z"/>
<path d="M8610 5670 l0 -1040 785 0 785 0 0 200 0 200 -500 0 -500 0 0 220 0
220 465 0 465 0 0 200 0 200 -465 0 -465 0 0 215 0 215 498 2 497 3 0 200 0
200 -782 3 -783 2 0 -1040z"/>
<path d="M2693 4693 c-36 -7 -91 -67 -99 -108 -16 -86 50 -185 123 -185 78 0
136 68 136 158 0 82 -82 151 -160 135z m108 -59 c31 -28 22 -164 -10 -164 -5
0 -14 13 -20 28 -9 22 -8 34 5 61 25 49 10 65 -60 69 l-56 3 0 -86 c0 -69 3
-85 15 -85 10 0 15 11 15 35 0 27 4 35 18 35 11 0 25 -14 35 -35 9 -20 24 -35
34 -35 15 0 15 -2 -3 -15 -25 -19 -74 -19 -101 0 -48 34 -65 141 -30 189 27
37 117 37 158 0z"/>
<path d="M8505 4240 c-80 -20 -138 -68 -174 -143 -27 -56 -37 -156 -22 -228
28 -132 116 -202 256 -202 40 0 93 6 119 13 l46 13 0 63 c0 35 -1 64 -2 64 -2
0 -25 -7 -52 -15 -62 -19 -119 -19 -155 0 -83 42 -79 265 5 303 35 17 95 15
139 -4 20 -8 39 -14 40 -12 15 14 44 113 36 121 -27 27 -172 44 -236 27z"/>
<path d="M9565 4241 c-113 -28 -189 -124 -201 -252 -19 -197 83 -322 261 -322
40 0 93 6 119 13 l46 13 0 63 c0 35 -3 64 -7 64 -5 0 -26 -7 -48 -15 -52 -18
-119 -19 -154 0 -76 39 -83 226 -10 294 28 26 101 29 156 6 20 -8 37 -14 39
-13 12 12 43 113 37 119 -14 14 -125 39 -168 38 -22 -1 -53 -4 -70 -8z"/>
<path d="M8840 3956 l0 -286 80 0 80 0 0 105 c0 142 14 142 95 0 l60 -105 88
0 87 0 -80 120 c-44 66 -80 122 -80 125 0 3 15 19 34 36 61 53 73 153 27 217
-36 51 -88 65 -248 70 l-143 4 0 -286z"/>
<path d="M9900 3955 l0 -285 170 0 170 0 0 66 0 66 -89 -4 -89 -3 -4 52 -3 52
85 3 85 3 0 60 0 60 -85 3 -85 3 2 37 c1 20 2 40 2 45 1 4 42 7 91 7 l90 0 0
60 0 60 -170 0 -170 0 0 -285z"/>
<path d="M8933 3510 c-74 -17 -101 -76 -95 -197 1 -17 14 -45 28 -62 34 -41
92 -44 129 -6 36 35 35 105 -1 134 -33 26 -81 27 -107 4 -20 -18 -20 -17 -14
21 8 51 34 76 86 83 24 3 40 10 38 17 -5 14 -24 16 -64 6z"/>
<path d="M9133 3510 c-50 -20 -77 -123 -54 -208 16 -58 42 -82 89 -82 63 0 86
34 90 130 5 95 -14 143 -60 159 -36 13 -36 13 -65 1z m68 -39 c22 -18 24 -27
24 -105 0 -66 -4 -89 -17 -102 -22 -22 -66 -21 -83 2 -33 46 -26 184 11 211
24 18 38 16 65 -6z"/>
<path d="M9345 3505 c-22 -8 -42 -15 -44 -15 -3 0 0 -5 6 -11 8 -8 21 -8 47 2
39 14 82 2 92 -26 11 -27 -22 -63 -66 -70 -52 -9 -51 -21 2 -28 27 -4 49 -14
60 -27 22 -28 22 -32 -1 -61 -19 -24 -59 -30 -113 -16 -21 6 -28 4 -28 -7 0
-8 7 -17 16 -20 26 -10 101 -7 128 5 52 24 59 109 11 131 l-24 11 24 19 c17
13 25 30 25 49 0 31 -30 69 -54 69 -8 0 -20 2 -28 5 -7 2 -31 -2 -53 -10z"/>
<path d="M8644 3468 c-8 -37 -13 -43 -36 -46 -36 -4 -37 -22 -2 -22 22 0 25
-3 20 -22 -3 -13 -6 -29 -6 -35 0 -8 -13 -13 -30 -13 -16 0 -30 -4 -30 -10 0
-5 12 -10 26 -10 26 0 26 -1 19 -46 -9 -61 16 -57 28 4 7 38 11 42 38 42 30 0
30 0 23 -45 -4 -29 -3 -45 4 -45 11 0 14 9 26 63 5 22 12 27 36 27 17 0 30 5
30 10 0 6 -14 10 -31 10 -24 0 -30 3 -25 16 3 9 6 24 6 35 0 14 7 19 30 19 17
0 30 5 30 10 0 6 -9 10 -19 10 -27 0 -31 10 -21 53 6 28 5 37 -5 37 -8 0 -17
-18 -22 -42 -8 -39 -11 -43 -38 -43 -17 0 -29 5 -29 10 1 6 4 25 7 43 10 50
-18 41 -29 -10z"/>
<path d="M9560 3440 l0 -70 48 0 c55 0 78 -14 87 -51 13 -54 -51 -87 -124 -64
-15 4 -21 2 -21 -8 0 -19 22 -27 77 -27 86 0 133 85 80 146 -18 21 -32 27 -70
28 l-47 1 0 43 0 42 60 0 c47 0 60 3 60 15 0 12 -15 15 -75 15 l-75 0 0 -70z"/>
</g>
</svg>
