<?xml version="1.0" standalone="no"?>
<!DOCTYPE svg PUBLIC "-//W3C//DTD SVG 20010904//EN"
 "http://www.w3.org/TR/2001/REC-SVG-20010904/DTD/svg10.dtd">
<svg version="1.0" xmlns="http://www.w3.org/2000/svg"
 width="1100.000000pt" height="1092.000000pt" viewBox="0 0 1100.000000 1092.000000"
 preserveAspectRatio="xMidYMid meet">
<metadata>
Created by potrace 1.16, written by Peter Selinger 2001-2019
</metadata>
<g transform="translate(0.000000,1092.000000) scale(0.100000,-0.100000)"
fill="#000000" stroke="none">
<path d="M5206 10911 c-4 -5 -50 -17 -104 -26 -53 -9 -108 -21 -120 -26 -13
-5 -54 -12 -90 -15 -140 -12 -174 -21 -170 -48 2 -14 11 -22 28 -24 59 -6 70
-12 70 -37 0 -13 4 -26 9 -29 5 -3 17 -59 26 -123 10 -65 22 -124 27 -130 6
-7 8 -20 4 -29 -3 -8 -2 -23 3 -33 5 -9 12 -42 15 -72 3 -30 13 -97 22 -149
20 -124 20 -131 -13 -157 -23 -19 -26 -26 -17 -40 9 -14 22 -17 55 -15 24 2
46 7 49 11 3 4 57 15 120 25 63 11 120 22 125 26 9 7 84 18 177 25 48 4 58 26
58 132 0 85 -2 93 -19 93 -19 0 -31 -18 -31 -49 0 -24 -26 -75 -47 -92 -37
-29 -65 -39 -149 -54 -146 -25 -165 -21 -180 40 -4 17 -10 35 -15 40 -11 15
-34 208 -26 228 4 11 24 18 67 23 33 4 63 11 66 15 3 5 33 9 68 9 l62 0 22
-45 c15 -31 28 -45 42 -45 24 0 25 13 5 95 -8 33 -15 83 -15 112 0 56 -9 68
-40 58 -15 -5 -20 -15 -20 -39 0 -19 -8 -40 -17 -49 -19 -17 -136 -47 -183
-47 -16 0 -32 -4 -35 -10 -17 -28 -52 7 -60 61 -2 13 -10 58 -19 99 -29 132
-29 157 -4 174 13 8 51 17 86 21 34 4 65 11 68 16 3 5 29 9 59 9 59 0 76 -14
108 -92 11 -27 22 -38 36 -38 17 0 21 6 21 34 0 19 -4 38 -10 41 -5 3 -10 35
-10 71 l0 64 -49 0 c-28 0 -52 -4 -55 -9z"/>
<path d="M5665 10600 c-16 -12 -44 -28 -62 -36 -47 -23 -56 -64 -14 -64 35 0
41 -23 42 -181 2 -161 -3 -199 -27 -199 -12 0 -16 -14 -13 -47 0 -5 8 -6 17
-4 9 2 58 6 107 10 81 5 90 8 90 26 0 11 -6 19 -13 17 -7 -1 -22 2 -32 8 -17
9 -20 22 -21 98 0 48 -4 120 -8 161 -6 64 -5 77 12 97 10 13 24 24 30 24 7 0
24 7 40 15 23 12 32 12 60 0 68 -28 72 -40 75 -218 l3 -160 -28 -23 c-45 -36
-23 -45 96 -38 85 6 104 10 112 26 14 27 2 39 -34 36 l-32 -3 -7 110 c-14 239
-33 312 -90 341 -49 26 -103 19 -172 -22 -65 -39 -86 -34 -86 17 0 34 -5 35
-45 9z"/>
<path d="M6348 10590 c-86 -57 -128 -124 -128 -202 0 -73 17 -114 65 -156 24
-21 40 -43 37 -48 -4 -5 -26 -18 -49 -29 -39 -18 -43 -24 -43 -56 0 -35 23
-69 48 -69 24 0 11 -20 -33 -50 -75 -52 -85 -67 -85 -131 0 -51 3 -60 32 -88
41 -40 63 -46 168 -46 100 0 147 20 223 94 62 59 77 88 77 151 0 44 -4 56 -29
79 -36 34 -92 51 -166 51 -65 0 -125 17 -125 36 0 7 21 22 48 34 155 71 176
87 216 158 14 26 17 50 14 110 l-3 77 53 3 53 3 -3 37 -3 37 -70 1 c-38 0 -83
6 -100 14 -16 7 -57 15 -90 17 -54 4 -64 2 -107 -27z m136 -61 c38 -45 57 -96
55 -149 -4 -79 -40 -130 -93 -130 -27 0 -42 9 -74 44 -23 25 -44 56 -47 70 -3
14 -7 36 -10 49 -6 31 11 89 36 121 16 21 29 26 64 26 36 0 48 -5 69 -31z m4
-538 c111 -22 124 -133 22 -186 -35 -18 -161 -20 -193 -4 -76 39 -86 88 -31
148 26 30 45 41 72 44 65 7 86 6 130 -2z"/>
<path d="M6955 10562 c-6 -5 -37 -15 -70 -22 -33 -7 -66 -17 -72 -22 -17 -14
-16 -38 1 -38 7 0 19 -7 26 -15 21 -25 -12 -259 -49 -358 -8 -19 -17 -27 -35
-27 -28 0 -43 -17 -29 -31 5 -5 34 -12 64 -16 30 -3 59 -9 64 -13 6 -5 30 -10
54 -11 32 -3 47 1 54 12 16 26 1 49 -33 49 -29 0 -30 2 -30 42 0 23 4 55 10
72 5 17 18 83 29 146 11 63 25 139 32 168 12 52 4 82 -16 64z"/>
<path d="M7235 10476 c-98 -30 -119 -52 -70 -74 14 -6 25 -17 25 -24 -1 -33
-42 -188 -77 -286 -11 -33 -23 -46 -50 -57 -43 -18 -39 -37 13 -51 21 -6 46
-13 54 -17 27 -11 109 -25 115 -19 13 13 3 41 -19 55 l-24 16 15 68 c8 37 18
77 22 88 4 11 16 52 25 90 9 39 24 76 33 83 9 6 42 12 72 12 46 0 59 -4 83
-27 23 -22 28 -35 28 -72 -1 -25 -7 -64 -15 -86 -8 -22 -15 -49 -15 -60 0 -40
-50 -153 -70 -158 -23 -6 -37 -34 -23 -48 5 -5 36 -14 68 -20 33 -6 70 -16 83
-22 29 -14 56 0 60 32 3 17 -2 21 -23 21 -43 0 -42 10 15 240 14 56 20 105 18
144 -4 53 -8 62 -41 92 -40 37 -84 43 -162 23 -77 -20 -80 -19 -76 29 3 46 2
47 -64 28z"/>
<path d="M4140 10266 c-19 -13 -52 -42 -73 -65 -42 -47 -64 -52 -73 -16 -10
40 -35 29 -87 -36 -54 -68 -52 -89 9 -89 28 0 35 -4 40 -27 4 -15 13 -38 20
-52 8 -14 14 -31 14 -37 0 -5 9 -29 20 -52 11 -22 20 -46 20 -51 0 -6 7 -31
16 -57 15 -44 15 -47 -6 -68 -19 -21 -20 -56 -1 -56 7 0 108 39 156 60 11 4
28 11 37 14 28 8 10 36 -23 36 -38 0 -62 29 -90 103 -12 34 -28 76 -34 92 -7
17 -21 54 -31 84 l-19 53 44 39 c36 32 51 39 85 39 22 0 48 -6 56 -13 21 -17
76 -125 85 -167 4 -19 16 -54 26 -77 23 -52 24 -76 2 -109 -13 -21 -14 -27 -3
-34 13 -8 64 3 83 18 7 5 28 15 47 21 56 18 80 42 69 69 -7 19 -12 21 -28 12
-37 -19 -49 -11 -67 43 -9 28 -20 57 -24 62 -3 6 -15 33 -25 60 -31 87 -73
162 -102 184 -15 11 -33 25 -40 31 -20 17 -66 10 -103 -14z"/>
<path d="M7909 10257 c-49 -14 -143 -82 -166 -120 -43 -74 -63 -131 -63 -182
0 -29 4 -56 9 -60 5 -3 12 -18 16 -34 6 -28 50 -75 92 -98 27 -15 131 -16 192
-2 40 9 70 31 71 51 0 4 -36 5 -79 1 -69 -5 -83 -3 -113 15 -47 30 -68 70 -68
135 0 38 6 61 18 76 17 21 18 21 157 6 77 -9 150 -13 163 -10 25 6 31 45 7 45
-10 0 -15 10 -15 33 0 47 -39 119 -74 136 -42 19 -95 22 -147 8z m76 -43 c22
-9 45 -57 45 -94 l0 -30 -59 0 c-33 0 -63 5 -66 10 -3 6 -17 10 -31 10 -27 0
-31 12 -9 30 8 7 15 17 15 23 0 15 53 57 72 57 9 0 24 -3 33 -6z"/>
<path d="M3637 10062 c-50 -53 -85 -100 -90 -119 -6 -26 9 -41 26 -24 21 21
56 13 63 -14 3 -14 10 -25 15 -25 5 0 9 -4 9 -9 0 -5 28 -66 61 -136 56 -115
60 -129 49 -151 -8 -13 -17 -24 -22 -24 -14 0 -9 -27 7 -40 13 -10 19 -10 33
2 9 8 51 32 92 53 94 46 99 51 77 72 -11 11 -30 16 -54 15 l-38 -3 -53 113
c-29 62 -66 140 -82 173 -16 33 -31 70 -35 81 -3 12 -14 29 -24 38 -16 15 -19
15 -34 -2z"/>
<path d="M8400 10061 c-134 -35 -235 -149 -247 -279 -8 -82 9 -130 62 -182
l46 -45 110 0 c105 0 111 1 129 25 10 13 16 28 14 32 -2 4 -36 4 -75 1 -88 -8
-135 13 -168 74 -24 46 -3 166 31 178 7 3 42 -2 78 -11 152 -35 220 -45 240
-34 24 13 26 26 5 34 -11 4 -15 20 -15 56 0 106 -102 179 -210 151z m80 -59
c16 -13 22 -29 23 -67 l2 -50 -40 2 c-22 2 -63 8 -92 14 l-52 12 21 31 c30 42
73 73 104 75 7 1 22 -7 34 -17z"/>
<path d="M8743 9843 c-17 -6 -16 -22 2 -56 13 -26 12 -31 -12 -75 -14 -26 -29
-51 -33 -57 -5 -5 -23 -37 -40 -70 -41 -76 -68 -105 -96 -105 -21 0 -39 -24
-29 -40 3 -4 24 -17 47 -29 24 -12 63 -35 88 -51 55 -35 66 -36 80 -9 14 25 1
44 -35 53 -14 4 -25 12 -24 19 1 30 125 243 152 262 45 32 117 8 117 -38 0
-35 108 -10 111 26 1 9 2 23 3 30 1 6 -2 22 -8 35 -11 25 -41 28 -126 12 -29
-5 -56 -7 -61 -4 -5 3 3 22 17 44 14 21 23 44 19 49 -6 11 -148 14 -172 4z"/>
<path d="M2970 9650 c-22 -22 -40 -46 -40 -54 0 -7 -7 -19 -15 -26 -8 -7 -15
-21 -15 -31 0 -27 -25 -23 -44 6 -9 14 -22 25 -30 25 -7 0 -28 -34 -46 -75
-36 -83 -33 -103 13 -86 27 11 33 7 67 -36 8 -11 20 -27 25 -36 6 -9 30 -44
54 -79 78 -111 83 -125 69 -164 -21 -59 4 -60 77 -6 34 26 74 56 89 67 47 34
15 73 -35 43 -19 -12 -25 -9 -60 32 -21 25 -39 51 -39 58 0 6 -4 12 -10 12 -5
0 -10 4 -10 10 0 5 -23 41 -51 80 -59 80 -59 93 -6 155 29 34 40 40 75 40 26
0 48 -7 62 -20 49 -44 180 -236 180 -264 0 -6 -6 -20 -12 -31 -20 -31 3 -48
39 -30 35 18 153 109 153 118 0 4 -7 15 -14 25 -13 17 -46 14 -46 -4 0 -5 -7
-9 -15 -9 -13 0 -58 55 -115 140 -93 138 -141 179 -212 180 -43 0 -52 -4 -88
-40z"/>
<path d="M9143 9625 c-15 -11 -15 -15 5 -40 23 -29 22 -31 -15 -81 -13 -17
-23 -35 -23 -40 0 -5 -24 -41 -52 -79 -29 -39 -61 -83 -71 -98 -15 -23 -24
-27 -62 -27 -37 0 -45 -3 -45 -19 0 -11 13 -25 33 -34 17 -9 54 -32 82 -51 54
-39 105 -48 105 -19 0 10 -12 27 -27 39 l-27 21 36 50 c20 28 43 64 52 80 8
16 39 62 68 100 29 39 60 81 68 93 8 12 23 33 34 47 25 32 15 40 -72 56 -57
11 -76 11 -89 2z"/>
<path d="M9419 9423 c-7 -8 -6 -21 3 -40 13 -26 11 -31 -25 -85 -21 -31 -73
-93 -114 -138 -65 -70 -80 -81 -100 -75 -14 3 -31 1 -38 -5 -15 -13 -9 -40 9
-40 6 0 40 -23 75 -50 68 -54 101 -63 101 -30 0 11 -4 20 -9 20 -5 0 -11 9
-14 20 -5 19 51 104 81 123 6 4 12 13 12 20 0 7 27 41 59 77 l58 65 47 -13
c94 -25 131 -94 84 -159 -13 -17 -30 -41 -38 -54 -17 -26 -42 -56 -100 -121
-33 -37 -49 -48 -77 -50 -62 -5 -52 -27 53 -108 55 -42 84 -49 104 -25 10 12
7 19 -16 39 -28 23 -28 25 -11 43 9 11 17 23 17 26 0 4 11 19 25 34 60 68 142
181 153 212 32 92 -1 166 -83 188 -27 7 -62 13 -76 13 -38 0 -51 19 -34 50 20
36 18 50 -8 50 -13 0 -27 4 -32 9 -16 15 -95 18 -106 4z"/>
<path d="M2476 9289 c-32 -25 -56 -69 -56 -103 0 -14 -4 -28 -10 -31 -5 -3
-10 -19 -10 -35 0 -16 5 -32 10 -35 6 -3 10 -19 10 -34 0 -15 3 -31 7 -35 4
-3 8 -16 10 -27 4 -24 44 -78 96 -128 42 -40 124 -63 185 -51 91 16 156 92
168 196 8 66 -1 110 -20 95 -7 -6 -13 -24 -14 -39 -2 -67 -86 -152 -151 -152
-45 0 -141 67 -141 98 0 8 18 40 40 71 22 31 60 83 83 116 39 54 42 63 33 87
-9 21 -15 24 -28 17 -10 -6 -26 -5 -43 1 -48 18 -139 12 -169 -11z m114 -74
c17 -9 30 -18 30 -21 0 -8 -44 -69 -52 -72 -4 -2 -15 -19 -24 -38 l-17 -35
-22 21 c-20 19 -45 79 -45 109 0 22 40 51 70 51 17 0 44 -7 60 -15z"/>
<path d="M9910 8965 c-7 -8 -17 -15 -22 -15 -20 0 -70 -43 -95 -82 -22 -37
-25 -49 -21 -119 l3 -79 -35 6 c-19 4 -36 11 -38 15 -7 18 -41 8 -61 -17 -16
-21 -19 -35 -15 -65 7 -44 9 -43 -73 -39 -77 3 -105 -7 -130 -43 -35 -50 -32
-122 7 -175 40 -56 115 -108 173 -123 72 -17 196 -7 238 19 64 39 86 109 54
175 -16 33 -57 78 -112 123 -24 19 -33 34 -33 55 0 29 1 30 38 23 20 -4 47
-13 58 -21 30 -19 141 -27 190 -14 50 13 116 69 138 116 15 30 20 34 37 25 11
-6 25 -20 32 -30 14 -24 52 -26 61 -4 15 38 5 59 -38 89 -26 17 -52 45 -61 66
-39 85 -114 129 -220 129 -43 0 -66 -5 -75 -15z m186 -74 c3 -9 10 -24 15 -33
14 -28 11 -54 -13 -95 -40 -70 -71 -104 -111 -125 -51 -26 -79 -15 -107 43
-26 55 -25 69 5 128 49 97 120 142 178 113 16 -8 31 -22 33 -31z m-419 -393
c53 -30 120 -104 128 -139 12 -54 -36 -99 -104 -99 -57 0 -181 86 -181 126 0
8 -4 14 -10 14 -5 0 -10 18 -10 39 0 31 6 44 28 60 37 27 100 27 149 -1z"/>
<path d="M2136 8921 c-4 -6 -18 -11 -31 -11 -37 0 -73 -56 -89 -137 -7 -39
-16 -75 -20 -82 -4 -6 -27 -11 -51 -11 -89 0 -128 -42 -139 -153 -4 -37 -11
-67 -15 -67 -4 0 -16 9 -26 20 -10 11 -26 20 -35 20 -31 0 -40 -22 -40 -103
l0 -79 28 6 c15 4 32 8 39 9 17 3 93 -56 180 -140 63 -61 75 -77 70 -99 -4
-23 14 -54 32 -54 4 0 13 11 19 25 7 14 32 47 57 74 25 26 45 56 45 65 0 20
-32 35 -38 18 -7 -21 -48 -13 -84 16 -19 15 -72 61 -117 102 l-83 75 5 48 c2
27 8 52 13 56 5 3 14 15 20 25 13 24 57 40 88 32 13 -3 55 -35 94 -71 38 -36
73 -65 77 -65 4 0 23 -17 42 -37 30 -33 34 -43 29 -75 -5 -30 -2 -39 12 -47
16 -8 24 -3 52 34 18 24 39 46 46 49 8 3 14 11 14 18 0 6 12 25 27 40 24 25
25 30 12 44 -13 12 -20 13 -42 3 -15 -7 -27 -16 -27 -21 0 -16 -41 13 -136 98
-52 46 -98 84 -102 84 -14 0 -32 54 -22 64 5 5 10 18 10 27 0 23 63 89 84 89
39 0 125 -58 213 -143 51 -50 92 -96 89 -102 -2 -6 2 -19 9 -28 11 -16 18 -11
71 50 90 103 87 97 66 117 -18 15 -21 15 -45 -4 -14 -11 -31 -20 -37 -20 -7 0
-45 29 -85 65 -40 36 -76 65 -80 65 -4 0 -18 11 -31 25 -13 14 -26 25 -29 25
-4 0 -21 11 -39 25 -18 14 -42 25 -52 25 -11 0 -25 5 -31 11 -8 8 -13 8 -17 0z"/>
<path d="M1535 8161 c-46 -12 -77 -30 -112 -66 -36 -39 -49 -103 -41 -215 4
-55 11 -75 31 -99 14 -17 27 -34 29 -38 7 -17 75 -61 113 -73 22 -7 44 -16 50
-21 13 -12 115 -11 115 1 0 6 8 10 17 10 21 0 113 61 113 74 0 5 7 17 15 26
19 21 36 145 26 190 -4 20 -14 47 -21 60 -20 38 -90 103 -137 127 -47 25 -149
37 -198 24z m106 -111 c117 -37 217 -136 204 -204 -10 -58 -66 -90 -155 -89
-82 0 -152 35 -221 111 -62 68 -66 105 -14 156 31 31 51 39 106 45 9 0 45 -8
80 -19z"/>
<path d="M923 7975 c-37 -75 -45 -99 -37 -112 17 -28 32 -26 49 6 17 33 49 42
59 16 3 -8 11 -15 18 -15 17 0 418 -401 418 -418 0 -11 -8 -13 -32 -8 -18 4
-130 17 -248 30 -118 13 -223 27 -233 31 -9 4 -41 10 -70 14 l-52 6 0 38 c0
27 -5 39 -18 43 -19 6 -47 -11 -47 -28 0 -6 -18 -47 -40 -93 -45 -93 -46 -98
-26 -114 11 -9 18 -6 35 15 20 25 23 26 103 21 46 -3 91 -8 101 -12 39 -16
337 -325 337 -350 0 -9 -39 -5 -44 4 -3 4 -61 12 -128 16 -204 12 -460 44
-475 59 -4 4 -6 23 -4 42 2 32 0 35 -20 32 -12 -2 -25 -10 -29 -18 -4 -8 -26
-54 -49 -101 -57 -119 -53 -163 10 -103 l27 26 173 -13 c96 -7 176 -16 179
-19 3 -3 99 -14 215 -24 116 -10 215 -23 222 -28 6 -5 31 -8 55 -6 50 4 62 28
30 62 -171 178 -368 389 -371 397 -2 8 12 9 45 5 27 -4 85 -10 129 -15 44 -5
130 -16 190 -25 61 -9 132 -18 160 -19 92 -4 97 -10 -299 405 -225 236 -249
266 -245 306 3 33 -1 42 -21 42 -15 0 -31 -22 -67 -95z"/>
<path d="M9680 8043 c-63 -12 -65 -44 -5 -62 69 -20 107 -51 140 -111 29 -54
30 -58 30 -196 0 -88 -4 -150 -12 -165 -6 -13 -17 -49 -24 -79 -6 -30 -18 -64
-25 -75 -8 -11 -14 -28 -14 -38 0 -10 -6 -31 -14 -45 -8 -15 -35 -70 -59 -122
-24 -52 -62 -124 -84 -160 -21 -36 -42 -72 -46 -80 -4 -8 -15 -27 -25 -41 -9
-14 -27 -41 -39 -60 -12 -19 -27 -39 -32 -46 -6 -7 -11 -15 -11 -19 0 -3 -24
-38 -53 -78 -29 -39 -64 -87 -77 -106 -13 -19 -43 -58 -67 -86 -24 -28 -43
-54 -43 -57 0 -3 -15 -21 -32 -40 -65 -69 -98 -108 -98 -114 0 -34 -860 -892
-914 -912 -6 -2 -30 -23 -53 -45 -23 -23 -66 -62 -95 -87 -29 -26 -117 -104
-194 -173 -78 -69 -144 -126 -148 -126 -3 0 -23 -17 -44 -38 -22 -20 -46 -42
-53 -47 -8 -6 -91 -79 -186 -163 -94 -83 -175 -152 -179 -152 -4 0 -26 -18
-48 -41 -37 -36 -294 -263 -391 -345 -79 -66 -281 -249 -352 -318 -72 -69
-102 -83 -67 -29 34 51 44 68 61 103 10 19 25 44 34 55 8 11 26 47 40 80 13
33 33 78 46 100 13 22 23 46 23 53 0 7 9 31 19 55 42 92 59 136 66 168 4 19
13 43 20 54 7 12 23 57 35 100 12 44 35 118 51 165 16 47 33 105 39 130 5 25
21 86 35 135 15 50 37 133 50 185 13 52 33 133 45 180 12 47 25 94 30 105 5
11 16 58 25 105 9 47 21 89 26 95 5 5 9 23 9 40 0 91 5 98 149 225 75 66 155
138 179 160 23 22 46 40 51 40 4 0 83 73 175 162 145 140 235 236 291 313 8
11 25 34 37 50 48 61 91 140 144 260 26 60 36 125 32 223 -3 91 -5 102 -33
142 -16 24 -53 60 -81 81 l-51 39 -121 0 c-66 0 -123 -4 -126 -9 -3 -5 -21
-12 -40 -15 -19 -4 -50 -18 -70 -31 -20 -14 -39 -25 -42 -25 -17 0 -112 -76
-192 -154 -88 -85 -222 -236 -222 -250 0 -3 -8 -15 -17 -25 -31 -34 -43 -50
-43 -58 0 -4 -14 -26 -30 -47 -17 -22 -30 -45 -30 -52 0 -7 -4 -14 -9 -16 -9
-3 -18 -20 -114 -215 -68 -136 -97 -198 -127 -268 -12 -27 -25 -59 -30 -70 -5
-11 -22 -54 -38 -95 -61 -156 -91 -236 -97 -263 -4 -15 -11 -30 -16 -33 -5 -3
-9 -15 -9 -27 0 -27 -35 -87 -63 -107 -11 -8 -39 -28 -62 -45 -23 -16 -85 -64
-136 -106 -52 -42 -100 -78 -106 -80 -6 -2 -50 -34 -99 -72 -119 -90 -274
-207 -309 -232 -15 -11 -83 -60 -150 -110 -67 -49 -165 -120 -216 -158 -245
-176 -289 -208 -409 -297 -71 -52 -175 -129 -230 -170 -56 -41 -111 -82 -121
-90 -10 -8 -50 -37 -89 -65 -39 -27 -112 -81 -163 -118 -51 -38 -101 -75 -112
-82 -93 -66 -183 -133 -199 -147 -11 -10 -25 -18 -32 -18 -6 0 -14 -6 -17 -12
-3 -7 -22 -22 -43 -33 -22 -11 -44 -27 -51 -35 -6 -8 -14 -12 -17 -9 -3 3 25
37 62 76 67 71 169 181 260 283 197 219 267 299 290 330 30 39 222 274 249
305 10 10 20 25 23 31 3 7 22 32 42 56 38 44 79 97 110 140 9 12 53 73 98 133
45 61 88 119 96 130 8 11 41 57 74 102 33 45 60 85 60 88 0 3 19 32 43 66 74
106 180 275 211 337 10 20 21 39 25 42 11 9 49 81 110 205 79 163 91 191 91
208 0 8 6 20 14 26 8 7 17 28 21 47 3 20 11 48 17 63 6 14 12 28 13 31 1 3 5
12 8 20 4 8 9 33 12 55 2 22 9 72 14 110 13 88 12 273 0 345 -5 30 -12 71 -14
90 -3 19 -13 55 -22 80 -24 68 -94 210 -103 210 -5 0 -11 9 -15 20 -9 27 -119
138 -185 187 -64 46 -224 126 -290 143 -25 7 -58 18 -75 25 -16 7 -66 19 -110
25 -44 7 -91 17 -104 24 -34 16 -589 15 -622 -1 -13 -6 -62 -17 -109 -23 -46
-7 -103 -18 -125 -25 -22 -7 -71 -21 -110 -31 -38 -9 -77 -20 -85 -25 -8 -4
-51 -19 -95 -34 -72 -23 -114 -40 -167 -66 -10 -5 -23 -9 -30 -9 -30 0 -443
-222 -515 -276 -17 -13 -34 -24 -37 -24 -17 0 -245 -163 -326 -233 -25 -21
-62 -52 -83 -70 -70 -60 -367 -360 -367 -372 0 -3 -22 -33 -50 -66 -40 -48
-134 -185 -207 -304 -41 -66 -123 -243 -147 -320 -16 -49 -33 -99 -37 -110
-31 -77 -43 -361 -20 -465 14 -60 18 -72 51 -145 91 -204 278 -332 533 -367
139 -18 487 5 487 34 0 4 17 8 38 8 21 0 42 4 48 8 5 5 41 21 79 37 192 77
358 172 554 320 102 76 256 222 301 284 14 18 37 47 51 65 37 46 149 202 149
209 0 3 19 38 43 79 24 40 51 91 60 113 10 22 22 47 27 56 20 37 59 168 65
222 4 31 11 60 16 63 13 7 11 261 -1 269 -5 3 -10 19 -10 34 0 55 -56 169
-105 212 -58 53 -75 59 -94 35 -10 -12 -5 -25 23 -68 20 -29 42 -75 51 -103
30 -99 12 -297 -35 -400 -10 -22 -22 -52 -25 -67 -4 -16 -11 -28 -16 -28 -5 0
-9 -7 -9 -16 0 -19 -45 -106 -77 -150 -13 -17 -23 -34 -23 -39 0 -4 -19 -37
-43 -74 -24 -36 -51 -78 -59 -92 -26 -41 -141 -183 -160 -197 -10 -7 -18 -18
-18 -24 0 -12 -189 -200 -261 -260 -156 -129 -197 -162 -219 -177 -14 -8 -27
-18 -30 -22 -3 -3 -23 -16 -46 -27 -22 -11 -46 -28 -53 -36 -8 -9 -20 -16 -28
-16 -8 0 -31 -11 -51 -25 -20 -14 -41 -25 -47 -25 -9 0 -50 -18 -125 -56 -43
-21 -155 -43 -252 -50 -172 -11 -319 37 -420 138 -27 26 -48 50 -48 53 0 3
-10 22 -23 43 -23 36 -36 72 -59 162 -15 60 -22 276 -9 320 5 19 17 73 26 120
9 47 20 90 24 95 4 6 13 30 20 55 7 25 20 61 28 80 8 19 19 44 23 55 32 84
171 337 205 375 8 9 15 22 15 28 0 7 5 12 10 12 6 0 10 5 10 10 0 6 27 45 60
88 34 42 71 90 83 106 35 44 310 326 319 326 5 0 37 24 73 53 87 71 162 127
170 127 4 0 28 15 54 34 25 18 72 49 104 67 32 19 74 44 95 56 39 24 313 160
347 173 11 4 41 17 66 28 25 12 54 23 65 25 19 4 42 12 79 27 48 20 184 59
230 65 28 4 52 11 55 15 13 20 277 43 430 37 152 -6 203 -14 267 -43 17 -8 36
-14 43 -14 13 0 94 -46 124 -70 45 -36 86 -75 86 -82 0 -5 16 -30 35 -57 19
-26 47 -79 62 -117 26 -67 27 -76 28 -264 0 -182 -10 -284 -35 -345 -4 -11
-16 -51 -25 -90 -17 -67 -36 -121 -92 -265 -35 -89 -39 -99 -148 -320 -91
-185 -125 -250 -173 -330 -12 -19 -25 -42 -29 -50 -45 -95 -430 -689 -483
-745 -11 -12 -20 -26 -20 -31 0 -5 -34 -54 -75 -109 -41 -55 -107 -144 -147
-198 -40 -54 -81 -105 -90 -115 -10 -9 -18 -21 -18 -26 0 -5 -9 -18 -21 -30
-11 -12 -43 -50 -70 -86 -28 -36 -62 -79 -77 -95 -15 -17 -38 -45 -52 -64 -14
-18 -85 -103 -157 -187 -73 -85 -133 -157 -133 -161 0 -4 -18 -26 -39 -48 -22
-22 -85 -91 -141 -153 -56 -61 -106 -112 -111 -112 -5 0 -9 -6 -9 -13 0 -7
-34 -46 -75 -87 -41 -41 -75 -78 -75 -82 0 -5 -31 -38 -68 -76 -69 -67 -132
-158 -132 -189 0 -9 5 -31 12 -49 9 -25 19 -35 42 -39 17 -3 41 -11 54 -17 16
-8 28 -8 45 0 12 6 35 13 51 17 16 3 76 38 133 76 57 38 108 69 113 69 4 0 10
3 12 8 2 4 46 36 98 71 52 35 97 67 98 72 2 5 8 9 14 9 10 0 60 35 261 180 57
41 114 82 126 90 59 39 158 110 173 124 9 8 26 19 37 25 11 7 59 40 105 74 47
34 116 85 155 112 89 63 91 64 177 128 40 28 82 59 94 67 31 21 191 138 213
156 9 8 19 14 22 14 6 0 175 123 299 217 49 38 103 77 120 88 17 11 70 50 118
87 48 38 91 68 95 68 5 0 28 18 52 40 24 22 46 40 49 40 3 0 24 16 48 35 23
19 45 35 48 35 3 0 14 7 24 16 22 20 152 119 222 169 30 22 100 75 155 117 55
43 111 87 125 97 14 11 60 48 103 83 43 34 86 68 96 73 9 6 27 20 40 32 39 36
42 17 10 -59 -16 -39 -29 -75 -29 -80 0 -6 -6 -24 -14 -41 -8 -18 -26 -68 -40
-112 -48 -148 -94 -289 -131 -410 -21 -66 -58 -179 -81 -252 -24 -72 -44 -139
-44 -147 0 -9 -4 -24 -9 -34 -19 -37 -30 -68 -36 -102 -4 -19 -13 -44 -20 -56
-7 -11 -19 -41 -25 -65 -6 -24 -20 -63 -31 -86 -10 -24 -19 -48 -19 -55 -1 -7
-9 -31 -20 -53 -11 -22 -19 -45 -20 -52 0 -7 -9 -28 -20 -48 -11 -20 -20 -40
-20 -45 0 -15 -137 -307 -150 -320 -3 -3 -14 -21 -24 -40 -11 -19 -40 -66 -65
-105 -88 -135 -101 -184 -57 -226 20 -19 33 -22 81 -20 32 1 70 7 84 13 14 6
32 12 39 14 8 1 22 10 31 18 10 9 23 16 29 16 7 0 12 5 12 10 0 6 5 10 11 10
7 0 84 69 173 153 151 144 226 213 386 356 36 32 139 124 230 206 91 81 185
164 210 186 25 21 65 56 90 77 25 22 88 76 140 121 52 46 111 97 131 114 19
18 51 44 70 59 67 54 215 179 245 208 16 17 38 30 48 30 16 0 17 -34 13 -617
-2 -340 -8 -631 -12 -647 -4 -16 -25 -46 -45 -66 -37 -37 -76 -49 -200 -64
-11 -1 -15 -15 -15 -61 l0 -60 455 0 455 0 1 53 c2 59 -10 72 -65 72 -108 0
-185 59 -203 156 -8 39 -12 314 -14 804 l-3 745 21 23 c12 12 26 22 31 22 5 0
69 52 142 115 74 63 138 115 143 115 5 0 18 11 28 25 10 14 22 25 27 25 4 0
73 55 152 123 79 67 176 150 217 184 78 65 192 167 298 267 36 33 79 73 95 87
109 95 505 514 595 630 14 17 33 40 44 50 10 10 24 27 30 38 6 11 46 65 89
120 42 55 77 102 77 105 0 2 20 37 44 78 39 64 120 221 162 313 12 26 33 96
64 215 13 47 13 187 0 195 -5 3 -9 16 -8 28 6 75 -82 228 -165 288 -99 72
-231 103 -347 82z m-1829 -777 c49 -20 75 -53 90 -114 18 -74 2 -158 -52 -268
-58 -116 -62 -124 -71 -124 -5 0 -8 -5 -8 -11 0 -12 -49 -74 -148 -184 -88
-99 -181 -188 -387 -369 -55 -49 -116 -104 -137 -122 -36 -34 -58 -43 -58 -25
0 6 4 12 9 15 5 3 17 41 26 83 10 43 22 83 26 88 4 6 15 39 24 75 10 36 21 70
25 75 4 6 15 37 25 70 45 160 153 420 231 555 49 84 172 220 199 220 7 0 15 5
17 12 11 33 132 48 189 24z"/>
<path d="M284 6432 c-7 -4 -17 -34 -23 -67 -6 -33 -16 -76 -21 -95 -5 -19 -18
-73 -29 -120 -11 -47 -32 -125 -45 -175 -14 -49 -24 -96 -21 -103 8 -22 49 -9
63 21 10 21 20 27 46 27 39 0 182 -27 211 -40 11 -5 58 -18 105 -28 76 -18
177 -44 325 -84 46 -12 51 -16 59 -50 9 -34 38 -59 53 -45 3 3 11 43 19 89 8
46 18 92 23 103 5 11 12 47 16 79 3 33 9 64 14 70 4 6 16 50 27 99 10 48 22
87 26 87 5 0 8 9 8 19 0 22 -35 50 -95 75 -22 10 -48 22 -57 27 -58 30 -66
-19 -10 -55 57 -36 78 -97 63 -179 -19 -98 -32 -140 -53 -174 -24 -40 -57 -43
-168 -12 -41 11 -93 25 -115 31 -22 6 -44 16 -48 22 -9 12 0 90 13 115 5 9 14
38 21 65 16 62 41 86 91 86 26 0 41 5 45 15 7 20 2 25 -28 29 -13 1 -31 5 -39
8 -8 3 -46 13 -85 23 -38 9 -75 21 -81 26 -14 11 -24 1 -24 -22 0 -10 13 -25
30 -34 25 -13 30 -21 30 -54 0 -48 -27 -188 -42 -219 -9 -18 -18 -22 -37 -17
-14 2 -42 7 -61 10 -51 7 -213 49 -228 59 -10 6 -12 22 -7 60 4 28 10 56 14
61 4 6 13 37 20 69 19 87 54 116 140 116 43 0 51 3 51 19 0 14 -10 20 -42 25
-24 4 -52 13 -63 20 -27 18 -77 28 -91 18z"/>
<path d="M95 5628 c-3 -13 -9 -66 -11 -118 -3 -52 -9 -120 -14 -150 -48 -294
-49 -300 -17 -300 17 0 27 9 37 35 12 31 18 35 49 35 65 0 256 -21 276 -31 11
-5 56 -11 100 -13 102 -6 149 -11 161 -18 5 -3 36 -9 68 -13 77 -9 106 -23
106 -50 0 -25 18 -45 41 -45 19 0 19 0 40 245 6 77 15 145 20 151 5 6 10 53
12 105 l2 93 -49 24 c-65 31 -141 40 -149 19 -4 -12 7 -24 42 -44 67 -37 86
-72 85 -153 -1 -100 -13 -173 -34 -208 -18 -30 -24 -32 -72 -31 -80 1 -244 31
-261 48 -11 11 9 195 25 231 12 29 49 50 86 50 19 0 23 5 20 23 -3 20 -10 23
-92 29 -49 4 -100 12 -112 19 -26 13 -54 6 -54 -14 0 -8 19 -27 41 -42 l42
-27 -7 -114 c-9 -152 -13 -157 -121 -148 -44 4 -84 10 -90 14 -5 4 -39 10 -74
13 -35 3 -67 10 -70 16 -15 23 4 201 26 249 16 36 62 62 111 62 26 0 52 15 52
31 0 3 -34 12 -75 18 -41 7 -77 17 -80 22 -12 19 -53 10 -60 -13z"/>
<path d="M7685 5604 c-45 -11 -101 -47 -123 -79 -80 -116 -27 -289 96 -311 20
-4 45 -11 56 -16 12 -7 22 -6 29 1 6 6 22 11 35 11 37 0 88 36 122 85 25 37
30 53 30 104 0 108 -74 192 -180 204 -25 3 -54 3 -65 1z"/>
<path d="M9195 5093 c-16 -3 -35 -9 -42 -15 -7 -5 -16 -7 -22 -4 -17 11 -174
-58 -250 -108 -41 -27 -106 -82 -145 -122 -88 -89 -103 -108 -153 -189 -25
-41 -89 -181 -98 -215 -4 -14 -13 -38 -20 -55 -7 -16 -19 -70 -25 -120 -6 -49
-16 -98 -21 -107 -12 -24 -12 -195 1 -203 6 -3 10 -24 10 -46 0 -44 28 -178
40 -194 4 -5 11 -25 15 -43 13 -63 89 -196 170 -298 86 -109 294 -253 409
-285 21 -6 50 -15 65 -21 14 -7 35 -12 46 -14 11 -1 45 -7 75 -13 84 -18 244
-12 355 13 107 23 282 121 377 211 15 14 32 25 38 25 5 0 10 4 10 9 0 6 16 27
36 48 19 21 56 66 81 101 l46 63 -37 33 -36 33 -117 -116 c-100 -99 -131 -122
-203 -158 -47 -23 -96 -45 -110 -48 -14 -4 -30 -11 -35 -16 -20 -15 -188 -31
-259 -24 -71 7 -95 14 -196 62 -98 47 -210 180 -259 310 -13 32 -29 74 -37 93
-8 19 -16 46 -18 60 -1 14 -5 32 -8 40 -4 8 -9 26 -11 40 -3 14 -8 36 -11 50
-4 14 -9 89 -13 167 l-6 143 684 2 684 3 -2 55 c-4 67 -9 120 -16 140 -2 8
-10 38 -16 66 -7 28 -22 76 -34 105 -31 76 -106 209 -117 209 -6 0 -10 6 -10
13 0 17 -132 148 -184 182 -43 29 -156 88 -201 104 -79 28 -166 41 -280 39
-66 0 -133 -3 -150 -5z m273 -145 c60 -14 150 -75 196 -131 45 -55 96 -164
103 -219 2 -24 9 -48 14 -54 5 -7 9 -52 7 -101 l-3 -88 -462 -3 -461 -2 -4 51
c-1 28 0 53 5 56 4 2 7 19 7 37 0 18 3 36 7 40 4 4 9 18 10 32 2 14 22 64 43
110 29 64 56 103 106 154 37 38 76 72 88 76 12 4 27 12 35 18 42 34 216 47
309 24z"/>
<path d="M687 4883 c-18 -18 -5 -41 31 -52 88 -27 112 -76 112 -223 0 -132
-12 -164 -66 -174 -54 -10 -246 1 -273 15 -24 13 -24 14 -18 133 7 134 11 141
79 152 32 5 38 10 38 31 l0 25 -104 0 c-57 0 -118 3 -135 6 -27 6 -31 4 -31
-14 0 -14 12 -27 36 -38 20 -9 38 -24 41 -33 2 -9 9 -24 14 -33 5 -10 9 -60 9
-111 0 -130 4 -127 -189 -127 l-151 0 -11 28 c-7 16 -9 73 -7 139 5 133 13
146 95 164 33 8 58 20 64 31 9 16 5 18 -29 18 -21 0 -42 4 -48 9 -15 15 -111
16 -128 2 -12 -10 -16 -32 -16 -82 0 -39 4 -69 10 -69 6 0 10 -36 10 -89 0
-50 -4 -93 -10 -96 -6 -4 -10 -57 -10 -126 l0 -119 25 0 c16 0 28 7 31 18 3 9
11 27 17 40 l10 22 311 -1 c171 -1 336 -4 366 -7 50 -6 56 -10 70 -39 9 -21
22 -33 35 -33 20 0 20 7 21 294 l0 295 -24 10 c-13 6 -27 9 -32 6 -5 -3 -11
-1 -15 5 -3 5 -17 10 -30 10 -13 0 -27 5 -30 10 -7 11 -58 14 -68 3z"/>
<path d="M846 4124 c-3 -9 -6 -31 -6 -49 0 -23 -5 -35 -17 -39 -31 -9 -195
-26 -260 -26 -34 0 -65 -5 -68 -11 -4 -5 -37 -10 -73 -10 -37 0 -122 -3 -189
-6 -140 -5 -155 1 -166 75 -6 34 -10 39 -27 35 -20 -5 -20 -10 -14 -107 15
-226 16 -231 47 -234 26 -3 27 -2 27 47 0 27 5 53 12 57 6 4 84 14 172 21 89
8 204 18 256 22 127 12 282 13 299 2 7 -5 16 -30 18 -55 5 -44 8 -47 32 -44
l26 3 -4 90 c-1 50 -7 94 -12 100 -5 5 -9 40 -9 77 0 60 -2 68 -19 68 -10 0
-22 -7 -25 -16z"/>
<path d="M5586 2554 c-194 -47 -353 -218 -400 -431 -20 -91 -20 -230 -1 -324
41 -195 188 -361 364 -413 68 -20 217 -21 287 -2 120 32 218 113 282 234 32
59 32 61 13 71 -34 19 -45 12 -70 -41 -28 -60 -93 -128 -148 -156 -186 -95
-397 -13 -494 193 -49 105 -63 189 -56 339 13 303 143 476 356 476 151 0 235
-81 302 -287 23 -72 23 -73 57 -73 l35 0 -7 61 c-3 34 -6 127 -6 205 l0 144
-29 0 c-21 0 -34 -8 -48 -29 l-18 -29 -53 24 c-115 53 -248 67 -366 38z"/>
<path d="M8083 2556 c-200 -49 -364 -223 -409 -434 -18 -88 -18 -251 2 -332
47 -200 195 -360 379 -409 56 -15 210 -13 271 3 120 32 218 113 282 234 l33
61 -30 16 -30 15 -27 -56 c-34 -72 -102 -140 -173 -172 -46 -22 -71 -26 -141
-26 -71 0 -94 5 -140 27 -151 73 -238 230 -247 447 -6 139 7 235 48 340 37 98
90 159 171 199 52 26 72 31 136 31 152 0 236 -80 303 -287 23 -72 23 -73 57
-73 l35 0 -7 46 c-3 26 -6 118 -6 205 l0 159 -28 0 c-20 0 -35 -9 -50 -30
l-22 -29 -62 29 c-106 50 -233 63 -345 36z"/>
<path d="M6380 2522 c0 -26 4 -29 59 -40 98 -20 91 17 91 -511 0 -293 -4 -469
-10 -481 -11 -20 -66 -40 -112 -40 -24 0 -28 -4 -28 -30 l0 -30 240 0 240 0 0
29 c0 27 -2 28 -57 34 -98 10 -98 11 -98 255 l0 207 60 2 60 3 91 -123 c49
-67 133 -186 185 -264 l94 -143 153 0 152 0 0 29 c0 27 -3 29 -50 35 -78 10
-119 50 -292 281 -87 116 -158 213 -158 216 0 4 33 22 73 41 139 66 187 131
195 260 4 69 2 84 -22 132 -29 59 -70 95 -144 129 -42 19 -73 22 -292 28 -135
4 -287 8 -337 8 l-93 1 0 -28z m586 -65 c70 -38 106 -108 106 -203 1 -87 -25
-155 -74 -199 -59 -54 -100 -68 -203 -69 l-90 -1 -3 249 -2 248 117 -4 c83 -3
127 -10 149 -21z"/>
<path d="M8860 2522 c0 -27 4 -30 54 -41 30 -7 66 -21 80 -32 l26 -20 0 -464
c0 -457 0 -465 -21 -483 -21 -21 -61 -32 -110 -32 -26 0 -29 -4 -29 -30 l0
-30 478 2 477 3 7 100 c3 55 9 130 12 168 l5 67 -27 0 c-24 0 -32 -10 -69 -88
-55 -114 -93 -158 -146 -173 -23 -7 -104 -12 -182 -12 -148 0 -193 10 -211 50
-4 10 -10 116 -12 237 l-4 218 111 -4 c92 -3 114 -7 138 -24 37 -28 62 -72 71
-126 7 -39 10 -43 37 -43 l30 0 0 220 0 220 -29 0 c-26 0 -30 -5 -41 -48 -27
-108 -77 -139 -215 -135 l-95 3 -3 228 -2 227 165 0 c127 0 173 -3 194 -15 39
-20 97 -90 124 -147 18 -40 26 -48 49 -48 l28 0 0 140 0 140 -445 0 -445 0 0
-28z"/>
</g>
</svg>
